<svg xmlns="http://www.w3.org/2000/svg" xmlns:xlink="http://www.w3.org/1999/xlink" width="600" viewBox="0 0 450 380.250002" height="507" preserveAspectRatio="xMidYMid meet"><defs><clipPath id="d1690606ce"><path d="M 0.441406 337 L 449.554688 337 L 449.554688 373 L 0.441406 373 Z M 0.441406 337 " clip-rule="nonzero"></path></clipPath></defs><path fill="#fe6f1b" d="M 344.566406 117.925781 L 393.855469 117.925781 C 402.152344 117.925781 408.9375 124.71875 408.9375 133.023438 L 408.9375 327.878906 C 279.710938 327.878906 170.277344 327.878906 41.054688 327.878906 L 41.054688 133.023438 C 41.054688 124.71875 47.839844 117.925781 56.136719 117.925781 L 105.425781 117.925781 L 105.425781 142.195312 L 68.714844 142.195312 L 68.714844 303.609375 L 381.277344 303.609375 L 381.277344 142.195312 L 344.566406 142.195312 Z M 344.566406 117.925781 " fill-opacity="1" fill-rule="evenodd"></path><g clip-path="url(#d1690606ce)"><path fill="#03beef" d="M 265.003906 337.871094 L 449.554688 337.871094 L 449.554688 355.03125 C 449.554688 364.46875 441.839844 372.191406 432.410156 372.191406 L 17.582031 372.191406 C 8.152344 372.191406 0.4375 364.46875 0.4375 355.03125 L 0.4375 337.871094 L 184.988281 337.871094 C 184.988281 343.878906 189.898438 348.796875 195.898438 348.796875 L 254.09375 348.796875 C 260.09375 348.796875 265.003906 343.878906 265.003906 337.871094 Z M 265.003906 337.871094 " fill-opacity="1" fill-rule="evenodd"></path></g><path fill="#03beef" d="M 284.773438 120.445312 L 251.027344 122.234375 L 269.445312 93.871094 Z M 276.785156 86.703125 L 370.191406 32.722656 L 388.050781 63.679688 L 294.644531 117.664062 Z M 276.785156 86.703125 " fill-opacity="1" fill-rule="evenodd"></path><path fill="#03beef" d="M 334.589844 252.121094 L 115.40625 252.121094 L 115.40625 10.921875 L 334.589844 10.921875 L 334.589844 41.761719 L 265.421875 81.734375 L 253.027344 100.816406 L 179.570312 100.816406 L 179.570312 110.808594 L 246.539062 110.808594 L 231.96875 133.246094 L 293.257812 130 L 334.589844 106.113281 Z M 179.570312 203.648438 L 270.421875 203.648438 L 270.421875 213.640625 L 179.570312 213.640625 Z M 179.570312 152.234375 L 270.421875 152.234375 L 270.421875 162.222656 L 179.570312 162.222656 Z M 179.570312 49.402344 L 270.421875 49.402344 L 270.421875 59.390625 L 179.570312 59.390625 Z M 179.570312 49.402344 " fill-opacity="1" fill-rule="evenodd"></path><path fill="#03beef" d="M 411.886719 49.90625 C 431.941406 38.3125 414.03125 7.386719 394.03125 18.945312 L 378.835938 27.726562 L 396.691406 58.6875 Z M 411.886719 49.90625 " fill-opacity="1" fill-rule="evenodd"></path></svg>