<svg xmlns="http://www.w3.org/2000/svg" xmlns:xlink="http://www.w3.org/1999/xlink" width="600" viewBox="0 0 450 380.250002" height="507" preserveAspectRatio="xMidYMid meet"><defs><clipPath id="f88ff26041"><path d="M 0.441406 0 L 449.554688 0 L 449.554688 379.5 L 0.441406 379.5 Z M 0.441406 0 " clip-rule="nonzero"></path></clipPath><clipPath id="dc085d44f0"><path d="M 184.101562 303.96875 L 314.90625 303.96875 L 314.90625 357.507812 L 184.101562 357.507812 Z M 184.101562 303.96875 " clip-rule="nonzero"></path></clipPath><clipPath id="8e12ee442b"><path d="M 126.554688 297.648438 L 314.703125 297.648438 L 314.703125 357.507812 L 126.554688 357.507812 Z M 126.554688 297.648438 " clip-rule="nonzero"></path></clipPath><clipPath id="e19db4b5fa"><path d="M 214.710938 313.554688 L 293 313.554688 L 293 357.507812 L 214.710938 357.507812 Z M 214.710938 313.554688 " clip-rule="nonzero"></path></clipPath></defs><g clip-path="url(#f88ff26041)"><path fill="#ffffff" d="M 0.441406 0 L 449.558594 0 L 449.558594 386.988281 L 0.441406 386.988281 Z M 0.441406 0 " fill-opacity="1" fill-rule="nonzero"></path><path fill="#ffffff" d="M 0.441406 0 L 449.558594 0 L 449.558594 379.5 L 0.441406 379.5 Z M 0.441406 0 " fill-opacity="1" fill-rule="nonzero"></path><path fill="#ffffff" d="M 0.441406 0 L 449.558594 0 L 449.558594 379.5 L 0.441406 379.5 Z M 0.441406 0 " fill-opacity="1" fill-rule="nonzero"></path></g><path fill="#fc4a1b" d="M 179.371094 21.515625 C 158.667969 29.507812 70.332031 63.605469 48.628906 145.828125 C 23.878906 239.582031 97.898438 349.964844 200.214844 370.300781 C 306.351562 391.402344 426.238281 341.808594 416.824219 264.972656 C 412.527344 229.917969 364.75 219.3125 366.960938 178.023438 C 369.121094 137.730469 419.90625 117.980469 414.585938 70.035156 C 414.253906 67.023438 413.179688 58 408.648438 48.980469 C 382.910156 -2.246094 266.351562 -12.058594 179.371094 21.515625 " fill-opacity="1" fill-rule="nonzero"></path><path fill="#ffffff" d="M 322.789062 196.9375 L 118.308594 196.9375 C 112.128906 196.9375 108.578125 191.929688 110.378906 185.753906 L 149.75 50.6875 C 151.550781 44.507812 158.023438 39.503906 164.203125 39.503906 L 368.679688 39.503906 C 374.859375 39.503906 378.414062 44.507812 376.609375 50.6875 L 337.238281 185.753906 C 335.4375 191.929688 328.96875 196.9375 322.789062 196.9375 " fill-opacity="1" fill-rule="nonzero"></path><path fill="#000000" d="M 164.203125 40.175781 C 158.3125 40.175781 152.121094 44.976562 150.398438 50.875 L 111.027344 185.941406 C 110.191406 188.808594 110.539062 191.460938 112.007812 193.417969 C 113.386719 195.253906 115.625 196.265625 118.308594 196.265625 L 322.789062 196.265625 C 328.679688 196.265625 334.871094 191.464844 336.589844 185.566406 L 375.960938 50.5 C 376.796875 47.632812 376.449219 44.980469 374.980469 43.023438 C 373.605469 41.1875 371.363281 40.175781 368.679688 40.175781 Z M 322.789062 197.613281 L 118.308594 197.613281 C 115.191406 197.613281 112.566406 196.410156 110.929688 194.226562 C 109.199219 191.925781 108.773438 188.847656 109.730469 185.566406 L 149.105469 50.5 C 150.980469 44.0625 157.753906 38.828125 164.203125 38.828125 L 368.679688 38.828125 C 371.800781 38.828125 374.421875 40.03125 376.0625 42.214844 C 377.792969 44.515625 378.214844 47.59375 377.257812 50.875 L 337.886719 185.941406 C 336.011719 192.375 329.234375 197.613281 322.789062 197.613281 " fill-opacity="1" fill-rule="nonzero"></path><path fill="#fc4a1b" d="M 329.4375 57.488281 L 318.160156 57.488281 C 316.1875 57.488281 314.125 59.085938 313.550781 61.054688 L 310.265625 72.328125 C 309.691406 74.292969 310.820312 75.890625 312.792969 75.890625 L 324.070312 75.890625 C 326.042969 75.890625 328.105469 74.292969 328.679688 72.328125 L 331.96875 61.054688 C 332.539062 59.085938 331.40625 57.488281 329.4375 57.488281 " fill-opacity="1" fill-rule="nonzero"></path><path fill="#fc4a1b" d="M 352.980469 57.488281 L 341.699219 57.488281 C 339.730469 57.488281 337.667969 59.085938 337.09375 61.054688 L 333.804688 72.328125 C 333.230469 74.292969 334.363281 75.890625 336.332031 75.890625 L 347.613281 75.890625 C 349.585938 75.890625 351.648438 74.292969 352.222656 72.328125 L 355.507812 61.054688 C 356.082031 59.085938 354.949219 57.488281 352.980469 57.488281 " fill-opacity="1" fill-rule="nonzero"></path><path fill="#fc4a1b" d="M 321.925781 83.253906 L 310.644531 83.253906 C 308.679688 83.253906 306.617188 84.851562 306.039062 86.816406 L 302.757812 98.089844 C 302.179688 100.058594 303.3125 101.65625 305.285156 101.65625 L 316.5625 101.65625 C 318.53125 101.65625 320.59375 100.058594 321.167969 98.089844 L 324.453125 86.816406 C 325.027344 84.851562 323.898438 83.253906 321.925781 83.253906 " fill-opacity="1" fill-rule="nonzero"></path><path fill="#fc4a1b" d="M 345.46875 83.253906 L 334.191406 83.253906 C 332.21875 83.253906 330.15625 84.851562 329.582031 86.820312 L 326.296875 98.089844 C 325.722656 100.058594 326.855469 101.65625 328.824219 101.65625 L 340.101562 101.65625 C 342.074219 101.65625 344.132812 100.058594 344.710938 98.089844 L 347.996094 86.820312 C 348.570312 84.851562 347.4375 83.253906 345.46875 83.253906 " fill-opacity="1" fill-rule="nonzero"></path><path fill="#fc4a1b" d="M 314.417969 109.019531 L 303.140625 109.019531 C 301.167969 109.019531 299.105469 110.613281 298.53125 112.582031 L 295.246094 123.855469 C 294.671875 125.824219 295.804688 127.417969 297.773438 127.417969 L 309.054688 127.417969 C 311.023438 127.417969 313.089844 125.824219 313.660156 123.855469 L 316.945312 112.582031 C 317.519531 110.613281 316.386719 109.019531 314.417969 109.019531 " fill-opacity="1" fill-rule="nonzero"></path><path fill="#fc4a1b" d="M 337.957031 109.019531 L 326.675781 109.019531 C 324.707031 109.019531 322.644531 110.617188 322.070312 112.585938 L 318.785156 123.855469 C 318.210938 125.828125 319.34375 127.421875 321.3125 127.421875 L 332.589844 127.421875 C 334.5625 127.421875 336.625 125.828125 337.199219 123.855469 L 340.484375 112.585938 C 341.058594 110.617188 339.925781 109.019531 337.957031 109.019531 " fill-opacity="1" fill-rule="nonzero"></path><path fill="#fc4a1b" d="M 306.90625 134.78125 L 295.625 134.78125 C 293.65625 134.78125 291.59375 136.378906 291.019531 138.347656 L 287.734375 149.621094 C 287.160156 151.589844 288.292969 153.183594 290.261719 153.183594 L 301.542969 153.183594 C 303.511719 153.183594 305.574219 151.589844 306.148438 149.621094 L 309.4375 138.347656 C 310.007812 136.378906 308.875 134.78125 306.90625 134.78125 " fill-opacity="1" fill-rule="nonzero"></path><path fill="#fc4a1b" d="M 330.449219 134.78125 L 319.167969 134.78125 C 317.195312 134.78125 315.136719 136.378906 314.558594 138.347656 L 311.273438 149.621094 C 310.703125 151.589844 311.835938 153.1875 313.804688 153.1875 L 325.082031 153.1875 C 327.054688 153.1875 329.113281 151.589844 329.691406 149.621094 L 332.976562 138.347656 C 333.546875 136.378906 332.417969 134.78125 330.449219 134.78125 " fill-opacity="1" fill-rule="nonzero"></path><path fill="#fc4a1b" d="M 299.394531 160.546875 L 288.117188 160.546875 C 286.144531 160.546875 284.082031 162.144531 283.511719 164.113281 L 280.226562 175.386719 C 279.648438 177.351562 280.78125 178.949219 282.75 178.949219 L 294.03125 178.949219 C 296 178.949219 298.066406 177.351562 298.636719 175.386719 L 301.921875 164.113281 C 302.496094 162.144531 301.367188 160.546875 299.394531 160.546875 " fill-opacity="1" fill-rule="nonzero"></path><path fill="#fc4a1b" d="M 322.9375 160.546875 L 311.65625 160.546875 C 309.691406 160.546875 307.625 162.140625 307.050781 164.113281 L 303.765625 175.382812 C 303.195312 177.351562 304.324219 178.949219 306.296875 178.949219 L 317.574219 178.949219 C 319.546875 178.949219 321.605469 177.351562 322.183594 175.382812 L 325.46875 164.113281 C 326.042969 162.140625 324.910156 160.546875 322.9375 160.546875 " fill-opacity="1" fill-rule="nonzero"></path><path fill="#fe6f1b" d="M 265.34375 178.949219 L 132.664062 178.949219 L 168.070312 57.488281 L 300.75 57.488281 L 265.34375 178.949219 " fill-opacity="1" fill-rule="nonzero"></path><path fill="#fc4a1b" d="M 272.207031 122.652344 L 263.644531 110.609375 C 260.6875 106.453125 254.460938 106.019531 249.78125 109.644531 L 215.921875 135.890625 C 212.960938 138.183594 209.019531 137.910156 207.148438 135.28125 L 199.535156 124.570312 C 196.582031 120.417969 190.355469 119.984375 185.675781 123.609375 L 150.371094 150.96875 L 144.609375 170.726562 L 258.191406 170.726562 L 272.207031 122.652344 " fill-opacity="1" fill-rule="nonzero"></path><path fill="#000000" d="M 156.050781 147.246094 C 155.851562 147.246094 155.652344 147.15625 155.515625 146.984375 C 155.289062 146.691406 155.34375 146.265625 155.636719 146.039062 L 185.027344 123.261719 C 187.710938 121.183594 191.003906 120.25 194.074219 120.703125 C 196.625 121.082031 198.808594 122.390625 200.234375 124.390625 L 207.773438 135 C 208.457031 135.960938 209.515625 136.59375 210.757812 136.773438 C 212.3125 137.003906 214 136.523438 215.386719 135.449219 L 249.132812 109.296875 C 251.8125 107.21875 255.109375 106.285156 258.179688 106.738281 C 260.726562 107.117188 262.914062 108.425781 264.339844 110.425781 L 266.34375 113.246094 C 266.558594 113.550781 266.488281 113.972656 266.183594 114.1875 C 265.878906 114.402344 265.457031 114.332031 265.242188 114.027344 L 263.238281 111.207031 C 262.03125 109.507812 260.160156 108.394531 257.980469 108.074219 C 255.277344 107.675781 252.355469 108.507812 249.960938 110.363281 L 216.210938 136.515625 C 214.539062 137.8125 212.480469 138.390625 210.5625 138.109375 C 208.953125 137.875 207.574219 137.046875 206.671875 135.78125 L 199.132812 125.171875 C 197.925781 123.472656 196.058594 122.359375 193.875 122.039062 C 191.171875 121.636719 188.246094 122.472656 185.851562 124.328125 L 156.464844 147.105469 C 156.339844 147.199219 156.195312 147.246094 156.050781 147.246094 " fill-opacity="1" fill-rule="nonzero"></path><path fill="#fc4a1b" d="M 212.667969 90.496094 C 210.257812 98.75 201.609375 105.445312 193.351562 105.445312 C 185.089844 105.445312 180.34375 98.75 182.75 90.496094 C 185.15625 82.238281 193.804688 75.546875 202.066406 75.546875 C 210.328125 75.546875 215.074219 82.238281 212.667969 90.496094 " fill-opacity="1" fill-rule="nonzero"></path><path fill="#000000" d="M 193.351562 106.117188 C 189.25 106.117188 185.8125 104.542969 183.664062 101.683594 C 181.398438 98.664062 180.84375 94.625 182.101562 90.304688 C 184.582031 81.792969 193.539062 74.871094 202.066406 74.871094 C 202.4375 74.871094 202.742188 75.171875 202.742188 75.542969 C 202.742188 75.917969 202.4375 76.222656 202.066406 76.222656 C 194.097656 76.222656 185.722656 82.707031 183.394531 90.683594 C 182.257812 94.582031 182.738281 98.203125 184.746094 100.875 C 186.632812 103.386719 189.6875 104.769531 193.351562 104.769531 C 197.316406 104.769531 201.484375 103.183594 205.082031 100.304688 C 205.371094 100.070312 205.796875 100.117188 206.027344 100.410156 C 206.261719 100.699219 206.214844 101.125 205.925781 101.355469 C 202.085938 104.429688 197.621094 106.117188 193.351562 106.117188 " fill-opacity="1" fill-rule="nonzero"></path><path fill="#ffffff" d="M 403.210938 94.832031 L 243.761719 94.832031 C 237.859375 94.832031 231.679688 99.613281 229.960938 105.511719 L 198.71875 212.683594 C 197 218.582031 200.390625 223.367188 206.292969 223.367188 L 365.742188 223.367188 C 371.648438 223.367188 377.828125 218.582031 379.550781 212.683594 L 410.789062 105.511719 C 412.507812 99.613281 409.113281 94.832031 403.210938 94.832031 " fill-opacity="1" fill-rule="nonzero"></path><path fill="#000000" d="M 243.765625 95.503906 C 238.148438 95.503906 232.246094 100.078125 230.605469 105.703125 L 199.367188 212.871094 C 198.574219 215.597656 198.902344 218.125 200.300781 219.984375 C 201.613281 221.730469 203.738281 222.691406 206.292969 222.691406 L 365.746094 222.691406 C 371.363281 222.691406 377.261719 218.117188 378.902344 212.492188 L 410.144531 105.320312 C 410.9375 102.597656 410.605469 100.070312 409.210938 98.210938 C 407.898438 96.464844 405.773438 95.503906 403.214844 95.503906 Z M 365.746094 224.039062 L 206.292969 224.039062 C 203.304688 224.039062 200.792969 222.886719 199.21875 220.792969 C 197.5625 218.585938 197.15625 215.636719 198.070312 212.492188 L 229.3125 105.320312 C 231.105469 99.164062 237.589844 94.152344 243.765625 94.152344 L 403.214844 94.152344 C 406.207031 94.152344 408.71875 95.304688 410.289062 97.398438 C 411.949219 99.605469 412.355469 102.558594 411.4375 105.703125 L 380.199219 212.871094 C 378.402344 219.027344 371.921875 224.039062 365.746094 224.039062 " fill-opacity="1" fill-rule="nonzero"></path><path fill="#fe6f1b" d="M 228.769531 216.4375 C 228.707031 216.4375 228.644531 216.425781 228.582031 216.410156 C 228.222656 216.304688 228.015625 215.933594 228.121094 215.574219 L 261.15625 102.246094 C 261.261719 101.886719 261.636719 101.683594 261.996094 101.785156 C 262.351562 101.890625 262.554688 102.261719 262.453125 102.621094 L 229.414062 215.949219 C 229.332031 216.246094 229.0625 216.4375 228.769531 216.4375 " fill-opacity="1" fill-rule="nonzero"></path><path fill="#000000" d="M 363.21875 204.535156 L 244.59375 204.535156 C 242.679688 204.535156 241.582031 202.984375 242.136719 201.074219 L 266.613281 117.121094 C 267.171875 115.210938 269.171875 113.660156 271.082031 113.660156 L 389.710938 113.660156 C 391.621094 113.660156 392.71875 115.210938 392.160156 117.121094 L 367.691406 201.074219 C 367.132812 202.984375 365.132812 204.535156 363.21875 204.535156 " fill-opacity="1" fill-rule="nonzero"></path><path fill="#fe6f1b" d="M 240.636719 159.097656 L 240.640625 159.097656 Z M 233.089844 149.128906 C 227.496094 149.128906 221.613281 153.683594 219.980469 159.285156 C 219.191406 162.003906 219.523438 164.519531 220.914062 166.371094 C 222.21875 168.109375 224.335938 169.066406 226.882812 169.066406 C 232.476562 169.066406 238.355469 164.507812 239.988281 158.910156 C 240.78125 156.191406 240.449219 153.675781 239.0625 151.824219 C 237.753906 150.085938 235.632812 149.128906 233.089844 149.128906 Z M 226.882812 170.414062 C 223.902344 170.414062 221.398438 169.265625 219.832031 167.179688 C 218.179688 164.980469 217.773438 162.042969 218.6875 158.910156 C 220.476562 152.773438 226.9375 147.777344 233.089844 147.777344 C 236.070312 147.777344 238.574219 148.929688 240.140625 151.011719 C 241.789062 153.214844 242.199219 156.152344 241.285156 159.285156 C 239.496094 165.421875 233.035156 170.414062 226.882812 170.414062 " fill-opacity="1" fill-rule="nonzero"></path><path fill="#fe6f1b" d="M 228.019531 166.519531 C 226.050781 166.519531 224.394531 165.753906 223.355469 164.367188 C 222.257812 162.910156 221.984375 160.972656 222.589844 158.910156 C 223.75 154.921875 227.953125 151.679688 231.953125 151.679688 C 233.921875 151.679688 235.578125 152.441406 236.621094 153.824219 C 237.714844 155.285156 237.984375 157.222656 237.382812 159.285156 C 237.25 159.75 237.070312 160.214844 236.851562 160.664062 C 236.691406 161 236.289062 161.140625 235.949219 160.980469 C 235.617188 160.816406 235.476562 160.414062 235.636719 160.078125 C 235.820312 159.695312 235.972656 159.300781 236.085938 158.910156 C 236.566406 157.265625 236.371094 155.746094 235.539062 154.636719 C 234.761719 153.597656 233.484375 153.027344 231.953125 153.027344 C 228.511719 153.027344 224.890625 155.835938 223.882812 159.285156 C 223.40625 160.933594 223.597656 162.449219 224.433594 163.558594 C 225.214844 164.597656 226.484375 165.167969 228.019531 165.167969 C 228.390625 165.167969 228.695312 165.472656 228.695312 165.84375 C 228.695312 166.214844 228.390625 166.519531 228.019531 166.519531 " fill-opacity="1" fill-rule="nonzero"></path><path fill="#fe6f1b" d="M 234.582031 122.394531 C 234.519531 122.394531 234.457031 122.382812 234.394531 122.367188 C 234.035156 122.261719 233.828125 121.886719 233.933594 121.53125 L 236.257812 113.5625 C 236.855469 111.503906 238.949219 109.890625 241.023438 109.890625 L 247.246094 109.890625 C 247.621094 109.890625 247.921875 110.191406 247.921875 110.566406 C 247.921875 110.9375 247.621094 111.238281 247.246094 111.238281 L 241.023438 111.238281 C 239.566406 111.238281 237.980469 112.472656 237.550781 113.9375 L 235.230469 121.90625 C 235.144531 122.199219 234.875 122.394531 234.582031 122.394531 " fill-opacity="1" fill-rule="nonzero"></path><path fill="#fe6f1b" d="M 238.003906 142.945312 L 231.777344 142.945312 C 230.734375 142.945312 229.847656 142.535156 229.289062 141.789062 C 228.710938 141.019531 228.558594 139.964844 228.871094 138.894531 C 228.976562 138.539062 229.347656 138.335938 229.707031 138.4375 C 230.066406 138.539062 230.273438 138.914062 230.167969 139.273438 C 229.972656 139.941406 230.046875 140.546875 230.371094 140.976562 C 230.667969 141.378906 231.167969 141.59375 231.777344 141.59375 L 238.003906 141.59375 C 239.457031 141.59375 241.046875 140.359375 241.472656 138.894531 L 246.535156 121.527344 C 246.636719 121.171875 247.011719 120.96875 247.371094 121.070312 C 247.730469 121.175781 247.933594 121.550781 247.828125 121.90625 L 242.769531 139.273438 C 242.167969 141.332031 240.074219 142.945312 238.003906 142.945312 " fill-opacity="1" fill-rule="nonzero"></path><path fill="#fe6f1b" d="M 243.996094 122.394531 L 237.769531 122.394531 C 237.398438 122.394531 237.09375 122.089844 237.09375 121.71875 C 237.09375 121.34375 237.398438 121.042969 237.769531 121.042969 L 243.996094 121.042969 C 244.367188 121.042969 244.671875 121.34375 244.671875 121.71875 C 244.671875 122.089844 244.367188 122.394531 243.996094 122.394531 " fill-opacity="1" fill-rule="nonzero"></path><path fill="#fe6f1b" d="M 242.246094 128.390625 L 236.023438 128.390625 C 235.648438 128.390625 235.347656 128.085938 235.347656 127.714844 C 235.347656 127.34375 235.648438 127.039062 236.023438 127.039062 L 242.246094 127.039062 C 242.621094 127.039062 242.921875 127.34375 242.921875 127.714844 C 242.921875 128.085938 242.621094 128.390625 242.246094 128.390625 " fill-opacity="1" fill-rule="nonzero"></path><path fill="#fe6f1b" d="M 218.953125 208.304688 L 212.726562 208.304688 C 212.351562 208.304688 212.050781 208.003906 212.050781 207.628906 C 212.050781 207.257812 212.351562 206.953125 212.726562 206.953125 L 218.953125 206.953125 C 220.40625 206.953125 221.992188 205.71875 222.417969 204.253906 L 223.8125 199.480469 C 223.914062 199.125 224.289062 198.917969 224.648438 199.023438 C 225.007812 199.125 225.210938 199.5 225.105469 199.859375 L 223.714844 204.632812 C 223.113281 206.691406 221.023438 208.304688 218.953125 208.304688 " fill-opacity="1" fill-rule="nonzero"></path><path fill="#fe6f1b" d="M 212.210938 199.144531 C 212.144531 199.144531 212.082031 199.136719 212.019531 199.117188 C 211.664062 199.015625 211.457031 198.636719 211.5625 198.28125 L 217.203125 178.921875 C 217.804688 176.863281 219.898438 175.25 221.96875 175.25 L 228.195312 175.25 C 229.238281 175.25 230.121094 175.660156 230.683594 176.40625 C 231.257812 177.175781 231.414062 178.230469 231.101562 179.296875 L 230.003906 183.070312 C 229.898438 183.425781 229.523438 183.628906 229.164062 183.527344 C 228.804688 183.421875 228.601562 183.050781 228.707031 182.691406 L 229.804688 178.921875 C 230 178.253906 229.925781 177.648438 229.601562 177.214844 C 229.304688 176.816406 228.800781 176.597656 228.195312 176.597656 L 221.96875 176.597656 C 220.515625 176.597656 218.925781 177.835938 218.5 179.296875 L 212.855469 198.660156 C 212.769531 198.953125 212.503906 199.144531 212.210938 199.144531 " fill-opacity="1" fill-rule="nonzero"></path><path fill="#fe6f1b" d="M 228.652344 182.355469 L 220.289062 182.355469 C 219.917969 182.355469 219.617188 182.054688 219.617188 181.679688 C 219.617188 181.308594 219.917969 181.007812 220.289062 181.007812 L 228.652344 181.007812 C 229.027344 181.007812 229.328125 181.308594 229.328125 181.679688 C 229.328125 182.054688 229.027344 182.355469 228.652344 182.355469 " fill-opacity="1" fill-rule="nonzero"></path><path fill="#fe6f1b" d="M 226.378906 190.152344 L 218.015625 190.152344 C 217.644531 190.152344 217.34375 189.851562 217.34375 189.476562 C 217.34375 189.101562 217.644531 188.800781 218.015625 188.800781 L 226.378906 188.800781 C 226.753906 188.800781 227.054688 189.101562 227.054688 189.476562 C 227.054688 189.851562 226.753906 190.152344 226.378906 190.152344 " fill-opacity="1" fill-rule="nonzero"></path><path fill="#03beef" d="M 184.460938 17.5625 L 123.867188 17.5625 C 120.261719 17.5625 116.488281 20.484375 115.441406 24.085938 L 104.308594 62.269531 C 103.257812 65.875 105.328125 68.792969 108.933594 68.792969 L 169.527344 68.792969 C 173.132812 68.792969 176.90625 65.875 177.957031 62.269531 L 189.085938 24.085938 C 190.136719 20.484375 188.066406 17.5625 184.460938 17.5625 " fill-opacity="1" fill-rule="nonzero"></path><path fill="#000000" d="M 139.210938 63.582031 L 104.757812 63.582031 C 102.847656 63.582031 101.238281 62.84375 100.230469 61.496094 C 99.167969 60.078125 98.902344 58.199219 99.484375 56.199219 L 100.769531 51.796875 C 100.871094 51.441406 101.246094 51.238281 101.605469 51.339844 C 101.964844 51.445312 102.167969 51.820312 102.0625 52.175781 L 100.78125 56.574219 C 100.320312 58.160156 100.507812 59.617188 101.308594 60.6875 C 102.058594 61.683594 103.28125 62.234375 104.757812 62.234375 L 139.210938 62.234375 C 139.585938 62.234375 139.886719 62.535156 139.886719 62.910156 C 139.886719 63.28125 139.585938 63.582031 139.210938 63.582031 " fill-opacity="1" fill-rule="nonzero"></path><path fill="#000000" d="M 107.070312 33.261719 C 107.007812 33.261719 106.945312 33.253906 106.882812 33.234375 C 106.523438 33.128906 106.320312 32.757812 106.421875 32.398438 L 107.351562 29.21875 C 107.453125 28.859375 107.828125 28.65625 108.1875 28.757812 C 108.546875 28.863281 108.75 29.238281 108.648438 29.59375 L 107.71875 32.777344 C 107.632812 33.070312 107.363281 33.261719 107.070312 33.261719 " fill-opacity="1" fill-rule="nonzero"></path><path fill="#000000" d="M 182.121094 28.445312 C 182.0625 28.445312 182 28.4375 181.933594 28.417969 C 181.574219 28.3125 181.371094 27.941406 181.476562 27.582031 L 184.265625 18.007812 C 184.726562 16.429688 184.539062 14.964844 183.738281 13.898438 C 182.988281 12.902344 181.765625 12.351562 180.289062 12.351562 L 119.695312 12.351562 C 116.375 12.351562 112.882812 15.058594 111.914062 18.390625 L 109.925781 25.210938 C 109.820312 25.566406 109.445312 25.769531 109.089844 25.667969 C 108.730469 25.5625 108.527344 25.1875 108.628906 24.832031 L 110.617188 18.007812 C 111.742188 14.148438 115.816406 11.003906 119.695312 11.003906 L 180.289062 11.003906 C 182.199219 11.003906 183.808594 11.742188 184.820312 13.089844 C 185.878906 14.503906 186.144531 16.386719 185.5625 18.390625 L 182.769531 27.957031 C 182.6875 28.253906 182.417969 28.445312 182.121094 28.445312 " fill-opacity="1" fill-rule="nonzero"></path><path fill="#000000" d="M 177.632812 43.855469 C 177.570312 43.855469 177.503906 43.84375 177.441406 43.828125 C 177.085938 43.722656 176.878906 43.347656 176.984375 42.992188 L 179.605469 34 C 179.707031 33.644531 180.082031 33.441406 180.441406 33.542969 C 180.796875 33.644531 181.003906 34.019531 180.898438 34.378906 L 178.277344 43.367188 C 178.195312 43.664062 177.925781 43.855469 177.632812 43.855469 " fill-opacity="1" fill-rule="nonzero"></path><path fill="#fe6f1b" d="M 256.957031 187.871094 C 256.785156 187.871094 256.613281 187.804688 256.480469 187.671875 C 256.214844 187.410156 256.214844 186.984375 256.480469 186.722656 L 313.808594 129.429688 C 314.074219 129.164062 314.5 129.164062 314.765625 129.429688 C 315.027344 129.691406 315.027344 130.117188 314.765625 130.382812 L 257.433594 187.671875 C 257.304688 187.804688 257.132812 187.871094 256.957031 187.871094 " fill-opacity="1" fill-rule="nonzero"></path><path fill="#fe6f1b" d="M 299.394531 161.222656 C 299.222656 161.222656 299.050781 161.160156 298.914062 161.023438 C 298.652344 160.761719 298.652344 160.335938 298.914062 160.070312 L 332.089844 126.917969 C 332.355469 126.65625 332.78125 126.65625 333.046875 126.917969 C 333.308594 127.183594 333.308594 127.613281 333.046875 127.875 L 299.871094 161.023438 C 299.742188 161.160156 299.566406 161.222656 299.394531 161.222656 " fill-opacity="1" fill-rule="nonzero"></path><path fill="#000000" d="M 52.285156 92.542969 C 52.214844 92.542969 52.140625 92.53125 52.070312 92.507812 C 51.714844 92.390625 51.523438 92.007812 51.644531 91.652344 C 57.675781 73.542969 77.339844 58.8125 95.472656 58.8125 L 116.714844 58.8125 C 134.3125 58.8125 153.398438 44.492188 159.261719 26.890625 C 159.382812 26.539062 159.761719 26.347656 160.117188 26.46875 C 160.46875 26.585938 160.660156 26.964844 160.542969 27.320312 C 154.511719 45.429688 134.847656 60.160156 116.714844 60.160156 L 95.472656 60.160156 C 77.875 60.160156 58.789062 74.480469 52.925781 92.082031 C 52.832031 92.363281 52.566406 92.542969 52.285156 92.542969 " fill-opacity="1" fill-rule="nonzero"></path><path fill="#fe6f1b" d="M 161.65625 28.765625 C 159.636719 30.28125 157.179688 30.28125 156.167969 28.765625 C 155.15625 27.25 155.972656 24.796875 157.992188 23.28125 C 160.015625 21.765625 162.472656 21.765625 163.484375 23.28125 C 164.496094 24.796875 163.675781 27.25 161.65625 28.765625 " fill-opacity="1" fill-rule="nonzero"></path><path fill="#000000" d="M 161.65625 28.765625 L 161.660156 28.765625 Z M 161.113281 22.820312 C 160.242188 22.820312 159.257812 23.175781 158.398438 23.824219 C 156.691406 25.097656 155.929688 27.195312 156.726562 28.394531 C 157.082031 28.925781 157.636719 29.117188 158.039062 29.1875 C 159.023438 29.355469 160.222656 28.996094 161.25 28.226562 C 162.957031 26.949219 163.722656 24.855469 162.921875 23.65625 C 162.566406 23.121094 162.011719 22.929688 161.609375 22.863281 C 161.449219 22.832031 161.285156 22.820312 161.113281 22.820312 Z M 158.542969 30.578125 C 158.296875 30.578125 158.050781 30.558594 157.8125 30.519531 C 156.859375 30.355469 156.097656 29.878906 155.605469 29.140625 C 154.378906 27.304688 155.25 24.492188 157.589844 22.742188 C 158.925781 21.738281 160.476562 21.296875 161.835938 21.53125 C 162.789062 21.691406 163.550781 22.171875 164.042969 22.90625 C 165.269531 24.742188 164.398438 27.554688 162.058594 29.308594 C 160.957031 30.132812 159.710938 30.578125 158.542969 30.578125 " fill-opacity="1" fill-rule="nonzero"></path><path fill="#fe6f1b" d="M 53.941406 94.472656 C 51.917969 95.988281 49.460938 95.988281 48.449219 94.472656 C 47.4375 92.957031 48.257812 90.5 50.277344 88.988281 C 52.296875 87.472656 54.757812 87.472656 55.765625 88.988281 C 56.777344 90.5 55.960938 92.957031 53.941406 94.472656 " fill-opacity="1" fill-rule="nonzero"></path><path fill="#000000" d="M 53.398438 88.523438 C 52.523438 88.523438 51.542969 88.882812 50.683594 89.527344 C 48.976562 90.808594 48.210938 92.898438 49.011719 94.101562 C 49.367188 94.632812 49.921875 94.824219 50.324219 94.894531 C 51.308594 95.0625 52.507812 94.703125 53.535156 93.933594 C 55.242188 92.652344 56.007812 90.5625 55.207031 89.359375 C 54.847656 88.828125 54.296875 88.636719 53.894531 88.566406 C 53.734375 88.539062 53.566406 88.523438 53.398438 88.523438 Z M 50.828125 96.285156 C 50.578125 96.285156 50.335938 96.265625 50.097656 96.222656 C 49.144531 96.0625 48.382812 95.585938 47.890625 94.847656 C 46.664062 93.011719 47.535156 90.199219 49.871094 88.449219 C 51.210938 87.445312 52.757812 87.003906 54.121094 87.234375 C 55.074219 87.398438 55.835938 87.875 56.328125 88.613281 C 57.554688 90.449219 56.683594 93.261719 54.34375 95.015625 C 53.242188 95.839844 51.996094 96.285156 50.828125 96.285156 " fill-opacity="1" fill-rule="nonzero"></path><path fill="#fe6f1b" d="M 112.191406 58.296875 L 108.804688 53.226562 C 108.214844 52.339844 106.773438 52.339844 105.589844 53.226562 L 98.824219 58.296875 C 97.640625 59.1875 97.160156 60.625 97.753906 61.511719 L 101.136719 66.585938 C 101.730469 67.472656 103.171875 67.472656 104.355469 66.585938 L 111.117188 61.511719 C 112.304688 60.625 112.785156 59.1875 112.191406 58.296875 " fill-opacity="1" fill-rule="nonzero"></path><path fill="#000000" d="M 107.414062 53.238281 C 106.960938 53.238281 106.449219 53.429688 105.992188 53.769531 L 99.230469 58.839844 C 98.265625 59.5625 97.972656 60.632812 98.3125 61.144531 L 101.699219 66.214844 C 101.820312 66.398438 102.019531 66.515625 102.28125 66.558594 C 102.785156 66.648438 103.40625 66.453125 103.949219 66.046875 L 110.714844 60.976562 C 111.675781 60.253906 111.96875 59.1875 111.628906 58.675781 L 108.242188 53.605469 C 108.121094 53.421875 107.921875 53.304688 107.660156 53.261719 C 107.582031 53.246094 107.496094 53.238281 107.414062 53.238281 Z M 102.527344 67.929688 C 102.367188 67.929688 102.210938 67.914062 102.054688 67.886719 C 101.429688 67.785156 100.902344 67.453125 100.574219 66.964844 L 97.191406 61.890625 C 96.390625 60.691406 96.929688 58.878906 98.417969 57.761719 L 105.183594 52.691406 C 106.027344 52.058594 107.011719 51.78125 107.886719 51.929688 C 108.511719 52.039062 109.039062 52.367188 109.367188 52.855469 L 112.75 57.929688 C 113.550781 59.128906 113.011719 60.941406 111.523438 62.058594 L 104.761719 67.128906 C 104.066406 67.648438 103.273438 67.929688 102.527344 67.929688 " fill-opacity="1" fill-rule="nonzero"></path><path fill="#03beef" d="M 90.015625 106.75 C 86.082031 106.75 83.953125 103.5625 85.261719 99.628906 C 86.574219 95.695312 90.828125 92.503906 94.765625 92.503906 C 98.699219 92.503906 100.828125 95.695312 99.519531 99.628906 C 98.207031 103.5625 93.953125 106.75 90.015625 106.75 Z M 97.050781 118.886719 L 110.375 105.136719 C 110.828125 104.554688 111.039062 103.886719 110.953125 103.3125 L 107.40625 60.429688 C 107.160156 58.792969 104.828125 58.792969 103.492188 60.429688 L 71.375 103.3125 C 70.90625 103.886719 70.671875 104.554688 70.738281 105.136719 L 74.898438 118.886719 C 74.984375 119.671875 75.59375 120.175781 76.453125 120.175781 L 94.636719 120.175781 C 95.496094 120.175781 96.441406 119.671875 97.050781 118.886719 " fill-opacity="1" fill-rule="nonzero"></path><path fill="#000000" d="M 94.765625 93.179688 C 91.101562 93.179688 87.125 96.167969 85.902344 99.839844 C 85.316406 101.605469 85.460938 103.226562 86.308594 104.402344 C 87.089844 105.480469 88.40625 106.078125 90.015625 106.078125 C 93.679688 106.078125 97.65625 103.085938 98.878906 99.414062 C 99.464844 97.652344 99.320312 96.03125 98.46875 94.855469 C 97.691406 93.773438 96.375 93.179688 94.765625 93.179688 Z M 90.015625 107.425781 C 87.960938 107.425781 86.253906 106.632812 85.214844 105.191406 C 84.121094 103.671875 83.90625 101.566406 84.621094 99.414062 C 86.015625 95.234375 90.566406 91.832031 94.765625 91.832031 C 96.820312 91.832031 98.523438 92.625 99.566406 94.066406 C 100.660156 95.582031 100.875 97.6875 100.160156 99.839844 C 98.765625 104.023438 94.214844 107.425781 90.015625 107.425781 Z M 71.402344 105.007812 L 75.542969 118.691406 C 75.554688 118.730469 75.5625 118.769531 75.566406 118.8125 C 75.636719 119.433594 76.210938 119.503906 76.453125 119.503906 L 94.636719 119.503906 C 95.285156 119.503906 96.039062 119.085938 96.519531 118.472656 C 96.535156 118.453125 96.550781 118.433594 96.566406 118.417969 L 109.859375 104.695312 C 110.183594 104.269531 110.339844 103.792969 110.285156 103.414062 L 106.734375 60.484375 C 106.691406 60.207031 106.515625 60.003906 106.199219 59.921875 C 105.625 59.761719 104.6875 60.035156 104.015625 60.855469 L 71.914062 103.714844 C 71.5625 104.148438 71.378906 104.617188 71.402344 105.007812 Z M 76.453125 120.851562 C 75.269531 120.851562 74.386719 120.121094 74.234375 119.027344 L 70.089844 105.332031 C 70.078125 105.292969 70.070312 105.253906 70.066406 105.210938 C 69.980469 104.449219 70.265625 103.601562 70.851562 102.886719 L 102.953125 60.027344 C 103.914062 58.84375 105.355469 58.289062 106.554688 58.617188 C 107.390625 58.847656 107.945312 59.472656 108.074219 60.328125 L 111.625 103.257812 C 111.734375 103.96875 111.472656 104.820312 110.90625 105.550781 C 110.890625 105.570312 110.875 105.585938 110.859375 105.605469 L 97.5625 119.332031 C 96.816406 120.269531 95.699219 120.851562 94.636719 120.851562 L 76.453125 120.851562 " fill-opacity="1" fill-rule="nonzero"></path><path fill="#000000" d="M 87.789062 135.171875 L 73.3125 135.171875 C 70.65625 135.171875 69.222656 133.019531 70.105469 130.371094 L 70.664062 128.691406 C 71.546875 126.042969 74.414062 123.894531 77.070312 123.894531 L 91.546875 123.894531 C 94.199219 123.894531 95.632812 126.042969 94.75 128.691406 L 94.191406 130.371094 C 93.308594 133.019531 90.441406 135.171875 87.789062 135.171875 " fill-opacity="1" fill-rule="nonzero"></path><path fill="#000000" d="M 96.679688 87.425781 C 96.609375 87.425781 96.535156 87.414062 96.464844 87.386719 C 96.109375 87.265625 95.921875 86.882812 96.042969 86.53125 C 99.296875 76.972656 104.171875 62.511719 104.460938 61.324219 C 104.484375 60.972656 104.777344 60.695312 105.136719 60.695312 C 105.351562 60.695312 105.558594 60.804688 105.6875 60.980469 C 105.964844 61.367188 105.964844 61.367188 101.59375 74.339844 C 99.464844 80.664062 97.320312 86.964844 97.320312 86.964844 C 97.226562 87.246094 96.960938 87.425781 96.679688 87.425781 " fill-opacity="1" fill-rule="nonzero"></path><g clip-path="url(#dc085d44f0)"><path fill="#000000" d="M 193.875 306.3125 C 193.875 306.3125 282.394531 296.015625 308.71875 318.789062 C 335.039062 341.558594 267.164062 439.476562 267.164062 439.476562 L 245.703125 423.570312 L 266.0625 354.359375 L 184.234375 331.136719 L 193.875 306.3125 " fill-opacity="1" fill-rule="nonzero"></path></g><g clip-path="url(#8e12ee442b)"><path fill="#000000" d="M 136.394531 357.507812 C 149.25 361.582031 181.023438 360.730469 213.179688 360.292969 C 222.316406 360.167969 230.753906 365.214844 234.902344 373.347656 C 244.429688 392.015625 265.042969 425.625 298.625 447.410156 L 314.664062 438.773438 L 273.730469 346.691406 C 269.992188 338.285156 263 331.746094 254.355469 328.582031 L 173.230469 298.851562 C 173.230469 298.851562 148.074219 291.828125 135.742188 314.265625 C 133.539062 318.273438 129.449219 311.109375 128.476562 314.34375 C 125.136719 325.433594 125.347656 354.003906 136.394531 357.507812 " fill-opacity="1" fill-rule="nonzero"></path></g><g clip-path="url(#e19db4b5fa)"><path fill="#ffffff" d="M 292.222656 388.976562 C 291.964844 388.976562 291.71875 388.828125 291.609375 388.578125 L 273.109375 346.964844 C 269.464844 338.769531 262.546875 332.300781 254.125 329.214844 L 215.273438 314.980469 C 214.921875 314.851562 214.746094 314.460938 214.871094 314.113281 C 215 313.761719 215.390625 313.582031 215.738281 313.710938 L 254.589844 327.949219 C 263.351562 331.160156 270.554688 337.890625 274.34375 346.417969 L 292.84375 388.027344 C 292.992188 388.367188 292.839844 388.769531 292.5 388.917969 C 292.410156 388.957031 292.316406 388.976562 292.222656 388.976562 " fill-opacity="1" fill-rule="nonzero"></path></g><path fill="#03beef" d="M 171.546875 186.484375 C 189.953125 186.203125 200.09375 187.015625 214.777344 194.742188 C 224.953125 200.09375 228.335938 210.511719 230.4375 215.8125 C 225.945312 222.800781 204.59375 257.496094 217.613281 292.160156 C 219.460938 297.078125 222.25 302.667969 226.566406 308.441406 C 222.886719 310.132812 217.324219 312.136719 210.472656 312.40625 C 199.039062 312.859375 192.582031 308.203125 186.050781 306.195312 C 161.511719 298.652344 140.71875 330.183594 127.976562 323.210938 C 119.011719 318.308594 121.628906 298.507812 125.59375 268.515625 C 132.09375 219.347656 146.746094 203.691406 151.507812 199.042969 C 159.890625 190.851562 169.210938 186.515625 171.546875 186.484375 " fill-opacity="1" fill-rule="nonzero"></path><path fill="#ffffff" d="M 316.632812 183.875 C 316.910156 183.289062 317.382812 182.808594 317.949219 182.484375 C 320.207031 181.183594 325.398438 178.035156 326.109375 176.15625 C 326.914062 174.035156 320.058594 170.839844 312.484375 173.890625 C 310.441406 174.710938 308.535156 176.097656 307.617188 177.828125 C 307.378906 178.28125 307.492188 178.148438 307.144531 178.742188 C 304.84375 182.671875 303.753906 186.03125 303.246094 189.03125 C 302.9375 190.835938 300.867188 194.207031 300.847656 195.796875 C 300.78125 201.636719 307.050781 205.570312 310.683594 195.265625 C 311.242188 193.695312 313.179688 189.183594 314.132812 187.871094 C 315.070312 186.585938 316.101562 185 316.632812 183.875 " fill-opacity="1" fill-rule="nonzero"></path><path fill="#000000" d="M 318.796875 173.304688 C 316.984375 173.304688 314.914062 173.636719 312.734375 174.515625 C 310.632812 175.363281 308.988281 176.6875 308.210938 178.144531 C 308.128906 178.304688 308.097656 178.378906 308.066406 178.449219 C 307.996094 178.605469 307.9375 178.722656 307.726562 179.085938 C 305.726562 182.5 304.476562 185.789062 303.910156 189.144531 C 303.753906 190.054688 303.242188 191.222656 302.695312 192.457031 C 302.148438 193.6875 301.535156 195.082031 301.523438 195.804688 C 301.496094 198.375 302.84375 200.628906 304.59375 200.9375 C 306.585938 201.289062 308.621094 199.085938 310.050781 195.039062 C 310.597656 193.480469 312.554688 188.890625 313.585938 187.476562 C 314.410156 186.34375 315.476562 184.730469 316.023438 183.585938 C 316.355469 182.890625 316.90625 182.308594 317.609375 181.898438 C 322.03125 179.355469 325.042969 177.066406 325.476562 175.914062 C 325.582031 175.640625 325.25 175.273438 325.101562 175.132812 C 324.214844 174.261719 321.875 173.304688 318.796875 173.304688 Z M 304.984375 202.320312 C 304.742188 202.320312 304.53125 202.300781 304.359375 202.269531 C 301.933594 201.839844 300.136719 199.054688 300.171875 195.789062 C 300.1875 194.789062 300.804688 193.394531 301.460938 191.910156 C 301.949219 190.804688 302.453125 189.664062 302.578125 188.917969 C 303.171875 185.402344 304.476562 181.960938 306.558594 178.402344 C 306.75 178.078125 306.785156 178 306.832031 177.898438 C 306.871094 177.8125 306.914062 177.714844 307.019531 177.511719 C 307.941406 175.773438 309.835938 174.226562 312.230469 173.261719 C 318.460938 170.757812 324.15625 172.320312 326.046875 174.164062 C 327.023438 175.121094 326.898438 175.972656 326.738281 176.390625 C 326.015625 178.308594 321.742188 181.078125 318.285156 183.070312 C 317.816406 183.339844 317.457031 183.714844 317.246094 184.164062 C 316.75 185.207031 315.789062 186.742188 314.679688 188.269531 C 313.773438 189.515625 311.855469 193.980469 311.324219 195.488281 C 309.246094 201.378906 306.515625 202.320312 304.984375 202.320312 " fill-opacity="1" fill-rule="nonzero"></path><path fill="#ffffff" d="M 286.820312 182.433594 L 289.164062 192.570312 L 294.015625 191.160156 C 294.285156 191.085938 294.527344 190.941406 294.734375 190.753906 L 295.101562 190.40625 C 295.566406 189.972656 296.226562 189.816406 296.824219 190.011719 C 297.152344 190.109375 297.503906 190.113281 297.832031 190.015625 L 333.902344 179.554688 C 334.199219 179.472656 334.484375 179.34375 334.753906 179.183594 L 342.886719 174.261719 L 333.816406 173.621094 C 333.324219 173.589844 332.824219 173.617188 332.335938 173.714844 L 295.570312 180.757812 C 295.257812 180.816406 294.960938 180.960938 294.722656 181.171875 L 294.664062 181.226562 C 294.207031 181.636719 293.566406 181.773438 292.984375 181.601562 L 292.691406 181.511719 C 292.425781 181.429688 292.136719 181.414062 291.859375 181.46875 L 286.820312 182.433594 " fill-opacity="1" fill-rule="nonzero"></path><path fill="#000000" d="M 287.640625 182.960938 L 289.664062 191.722656 L 293.828125 190.511719 C 293.992188 190.464844 294.144531 190.375 294.273438 190.257812 L 294.636719 189.914062 C 295.28125 189.3125 296.199219 189.101562 297.027344 189.363281 C 297.230469 189.425781 297.441406 189.429688 297.648438 189.371094 L 333.714844 178.910156 C 333.957031 178.839844 334.1875 178.738281 334.402344 178.605469 L 340.714844 174.785156 L 333.769531 174.292969 C 333.332031 174.265625 332.894531 174.292969 332.464844 174.375 L 295.695312 181.417969 C 295.503906 181.457031 295.324219 181.542969 295.171875 181.675781 L 295.113281 181.730469 C 294.480469 182.292969 293.589844 182.488281 292.789062 182.242188 L 292.492188 182.15625 C 292.332031 182.105469 292.15625 182.09375 291.984375 182.128906 Z M 289.164062 193.246094 C 289.046875 193.246094 288.925781 193.214844 288.824219 193.152344 C 288.660156 193.058594 288.546875 192.902344 288.507812 192.722656 L 286.164062 182.582031 C 286.121094 182.40625 286.15625 182.21875 286.253906 182.0625 C 286.355469 181.910156 286.515625 181.804688 286.695312 181.769531 L 291.730469 180.804688 C 292.117188 180.730469 292.515625 180.75 292.890625 180.863281 L 293.183594 180.953125 C 293.539062 181.0625 293.933594 180.976562 294.21875 180.722656 L 294.277344 180.667969 C 294.605469 180.375 295.011719 180.175781 295.441406 180.09375 L 332.210938 173.050781 C 332.757812 172.945312 333.308594 172.914062 333.863281 172.949219 L 342.933594 173.585938 C 343.226562 173.609375 343.472656 173.816406 343.539062 174.101562 C 343.609375 174.386719 343.488281 174.683594 343.234375 174.839844 L 335.101562 179.761719 C 334.785156 179.953125 334.445312 180.101562 334.089844 180.203125 L 298.023438 190.664062 C 297.5625 190.796875 297.078125 190.792969 296.625 190.648438 C 296.253906 190.535156 295.847656 190.628906 295.5625 190.902344 L 295.191406 191.242188 C 294.914062 191.503906 294.570312 191.699219 294.203125 191.804688 L 289.351562 193.21875 C 289.289062 193.238281 289.226562 193.246094 289.164062 193.246094 " fill-opacity="1" fill-rule="nonzero"></path><path fill="#000000" d="M 334.28125 180.007812 C 333.964844 180.007812 333.679688 179.78125 333.617188 179.457031 L 332.863281 175.402344 C 332.796875 175.035156 333.035156 174.679688 333.402344 174.613281 C 333.769531 174.542969 334.121094 174.785156 334.191406 175.152344 L 334.945312 179.207031 C 335.015625 179.578125 334.773438 179.929688 334.40625 179.996094 C 334.367188 180.003906 334.324219 180.007812 334.28125 180.007812 " fill-opacity="1" fill-rule="nonzero"></path><path fill="#fe6f1b" d="M 280.832031 194.769531 L 288.777344 192.734375 C 289.113281 192.648438 289.3125 192.308594 289.230469 191.972656 L 287.039062 182.980469 C 286.957031 182.640625 286.613281 182.429688 286.273438 182.519531 L 278.34375 184.550781 C 276.777344 184.953125 275.8125 186.519531 276.183594 188.050781 L 277.324219 192.722656 C 277.695312 194.257812 279.269531 195.171875 280.832031 194.769531 " fill-opacity="1" fill-rule="nonzero"></path><path fill="#000000" d="M 286.394531 183.179688 L 278.511719 185.207031 C 277.300781 185.515625 276.554688 186.722656 276.839844 187.890625 L 277.976562 192.566406 C 278.113281 193.117188 278.457031 193.582031 278.949219 193.878906 C 279.460938 194.183594 280.070312 194.269531 280.664062 194.117188 L 288.566406 192.089844 Z M 280.085938 195.542969 C 279.441406 195.542969 278.8125 195.371094 278.253906 195.03125 C 277.453125 194.550781 276.886719 193.789062 276.667969 192.886719 L 275.527344 188.210938 C 275.066406 186.324219 276.253906 184.390625 278.175781 183.898438 L 286.105469 181.863281 C 286.445312 181.777344 286.800781 181.828125 287.101562 182.007812 C 287.402344 182.191406 287.613281 182.476562 287.699219 182.820312 L 289.890625 191.8125 C 290.054688 192.503906 289.632812 193.210938 288.945312 193.386719 L 281.003906 195.425781 C 280.695312 195.503906 280.390625 195.542969 280.085938 195.542969 " fill-opacity="1" fill-rule="nonzero"></path><path fill="#000000" d="M 290.929688 190.640625 C 290.628906 190.640625 290.355469 190.4375 290.273438 190.136719 L 288.757812 184.234375 C 288.664062 183.875 288.882812 183.507812 289.242188 183.414062 C 289.605469 183.320312 289.972656 183.539062 290.066406 183.898438 L 291.582031 189.796875 C 291.675781 190.160156 291.457031 190.527344 291.097656 190.621094 C 291.042969 190.632812 290.984375 190.640625 290.929688 190.640625 " fill-opacity="1" fill-rule="nonzero"></path><path fill="#000000" d="M 295.535156 188.816406 C 295.230469 188.816406 294.957031 188.613281 294.878906 188.308594 L 293.65625 183.507812 C 293.5625 183.148438 293.777344 182.78125 294.140625 182.691406 C 294.503906 182.597656 294.871094 182.816406 294.960938 183.175781 L 296.1875 187.976562 C 296.28125 188.335938 296.0625 188.707031 295.699219 188.796875 C 295.644531 188.8125 295.589844 188.816406 295.535156 188.816406 " fill-opacity="1" fill-rule="nonzero"></path><path fill="#000000" d="M 299.078125 187.871094 C 298.78125 187.871094 298.507812 187.675781 298.425781 187.375 C 298.332031 187.015625 298.539062 186.644531 298.902344 186.546875 L 309.609375 183.601562 C 309.96875 183.503906 310.339844 183.714844 310.4375 184.074219 C 310.539062 184.433594 310.328125 184.804688 309.96875 184.902344 L 299.257812 187.847656 C 299.199219 187.863281 299.140625 187.871094 299.078125 187.871094 " fill-opacity="1" fill-rule="nonzero"></path><path fill="#000000" d="M 325.609375 180.683594 C 325.3125 180.683594 325.039062 180.488281 324.957031 180.1875 C 324.859375 179.828125 325.074219 179.453125 325.433594 179.359375 L 331.898438 177.605469 C 332.253906 177.511719 332.628906 177.722656 332.722656 178.082031 C 332.824219 178.441406 332.609375 178.8125 332.25 178.910156 L 325.789062 180.660156 C 325.730469 180.675781 325.667969 180.683594 325.609375 180.683594 " fill-opacity="1" fill-rule="nonzero"></path><path fill="#ffffff" d="M 278.523438 188.015625 C 278.226562 188.015625 277.953125 187.8125 277.875 187.511719 C 277.777344 187.152344 277.992188 186.78125 278.355469 186.6875 L 284.847656 184.972656 C 285.207031 184.878906 285.578125 185.089844 285.671875 185.449219 C 285.765625 185.8125 285.550781 186.179688 285.191406 186.277344 L 278.699219 187.992188 C 278.640625 188.007812 278.582031 188.015625 278.523438 188.015625 " fill-opacity="1" fill-rule="nonzero"></path><path fill="#ffffff" d="M 309.402344 187.167969 C 309.992188 186.484375 310.160156 185.875 310.472656 185.121094 C 310.992188 183.875 311.84375 182.785156 312.925781 181.953125 C 313.792969 181.28125 314.769531 180.632812 315.09375 180.417969 C 316.859375 179.246094 318.042969 178.921875 319.257812 179.03125 C 320.46875 179.148438 322.984375 178.929688 321.886719 180.867188 C 321.886719 180.867188 321.847656 181.351562 319.097656 182.339844 C 319.097656 182.339844 318.28125 182.390625 316.921875 185.324219 C 316.144531 187.003906 315.132812 188.382812 314.414062 189.257812 C 314.074219 189.675781 313.636719 190 313.140625 190.152344 C 310.785156 190.878906 309.03125 187.324219 308.984375 187.339844 L 309.402344 187.167969 " fill-opacity="1" fill-rule="nonzero"></path><path fill="#000000" d="M 319.824219 182.949219 Z M 319.703125 182.972656 Z M 319.703125 182.972656 Z M 319.703125 182.972656 L 319.699219 182.972656 Z M 319.699219 182.972656 Z M 312.675781 191.1875 C 312.402344 191.1875 312.144531 191.023438 312.042969 190.753906 C 311.914062 190.40625 312.085938 190.015625 312.433594 189.882812 C 313.046875 189.652344 314.121094 189.128906 314.488281 188.753906 C 315.257812 187.964844 316.144531 186.566406 316.867188 185.003906 C 318.082031 182.386719 318.988281 181.757812 319.484375 181.644531 C 320.730469 181.207031 321.375 180.738281 321.699219 180.417969 C 321.882812 180.242188 322 180.019531 322.03125 179.789062 C 321.886719 179.585938 320.789062 179.417969 319.871094 179.472656 C 318.433594 179.558594 317.679688 179.847656 316.027344 180.941406 C 314.992188 181.628906 314.296875 182.140625 313.894531 182.449219 C 312.902344 183.214844 312.125 184.21875 311.65625 185.34375 C 311.257812 186.304688 310.753906 186.746094 309.414062 187.328125 C 309.070312 187.476562 308.675781 187.316406 308.523438 186.972656 C 308.378906 186.632812 308.535156 186.234375 308.878906 186.089844 C 310.003906 185.601562 310.183594 185.371094 310.410156 184.828125 C 310.96875 183.480469 311.890625 182.289062 313.074219 181.378906 C 313.492188 181.054688 314.210938 180.527344 315.277344 179.820312 C 317.132812 178.589844 318.101562 178.226562 319.789062 178.125 C 320.1875 178.101562 322.230469 178.023438 323.035156 178.890625 C 323.308594 179.191406 323.425781 179.578125 323.371094 179.984375 C 323.292969 180.5 323.035156 181 322.644531 181.386719 C 322.21875 181.800781 321.390625 182.410156 319.878906 182.9375 C 319.859375 182.945312 319.835938 182.949219 319.8125 182.957031 C 319.71875 183.011719 319.082031 183.433594 318.09375 185.570312 C 317.308594 187.261719 316.324219 188.804688 315.457031 189.691406 C 314.71875 190.453125 312.988281 191.117188 312.914062 191.144531 C 312.835938 191.171875 312.753906 191.1875 312.675781 191.1875 " fill-opacity="1" fill-rule="nonzero"></path><path fill="#03beef" d="M 214.777344 194.742188 C 214.777344 194.742188 238.015625 213.082031 263 217.054688 C 287.988281 221.03125 299.46875 194.742188 299.46875 194.742188 L 311.835938 196.691406 C 311.835938 196.691406 304.011719 254.765625 271.449219 256.515625 C 238.890625 258.269531 205.132812 238.117188 205.132812 238.117188 L 214.777344 194.742188 " fill-opacity="1" fill-rule="nonzero"></path><path fill="#ffffff" d="M 178.371094 237.242188 L 66.886719 237.242188 C 62.820312 237.242188 59.046875 240.53125 58.453125 244.589844 L 46.355469 327.148438 C 45.757812 331.207031 48.570312 334.5 52.632812 334.5 L 164.121094 334.5 C 168.183594 334.5 171.960938 331.207031 172.554688 327.148438 L 184.652344 244.589844 C 185.246094 240.53125 182.433594 237.242188 178.371094 237.242188 " fill-opacity="1" fill-rule="nonzero"></path><path fill="#000000" d="M 66.886719 237.914062 C 63.152344 237.914062 59.667969 240.953125 59.121094 244.6875 L 47.023438 327.246094 C 46.761719 329.027344 47.207031 330.691406 48.28125 331.933594 C 49.335938 333.152344 50.882812 333.824219 52.632812 333.824219 L 164.121094 333.824219 C 167.855469 333.824219 171.339844 330.785156 171.886719 327.050781 L 183.984375 244.492188 C 184.246094 242.710938 183.796875 241.046875 182.722656 239.804688 C 181.667969 238.585938 180.125 237.914062 178.371094 237.914062 Z M 164.121094 335.175781 L 52.632812 335.175781 C 50.484375 335.175781 48.574219 334.335938 47.261719 332.816406 C 45.925781 331.273438 45.367188 329.226562 45.6875 327.050781 L 57.785156 244.492188 C 58.425781 240.121094 62.507812 236.566406 66.886719 236.566406 L 178.371094 236.566406 C 180.523438 236.566406 182.429688 237.402344 183.746094 238.921875 C 185.078125 240.46875 185.636719 242.511719 185.320312 244.6875 L 173.222656 327.246094 C 172.582031 331.617188 168.5 335.175781 164.121094 335.175781 " fill-opacity="1" fill-rule="nonzero"></path><path fill="#000000" d="M 178.113281 249.976562 L 63.609375 249.976562 C 63.234375 249.976562 62.933594 249.675781 62.933594 249.304688 C 62.933594 248.929688 63.234375 248.628906 63.609375 248.628906 L 178.113281 248.628906 C 178.488281 248.628906 178.789062 248.929688 178.789062 249.304688 C 178.789062 249.675781 178.488281 249.976562 178.113281 249.976562 " fill-opacity="1" fill-rule="nonzero"></path><path fill="#fe6f1b" d="M 71.808594 242.894531 C 71.65625 243.9375 70.6875 244.78125 69.644531 244.78125 C 68.605469 244.78125 67.882812 243.9375 68.035156 242.894531 C 68.1875 241.851562 69.15625 241.007812 70.199219 241.007812 C 71.242188 241.007812 71.960938 241.851562 71.808594 242.894531 " fill-opacity="1" fill-rule="nonzero"></path><path fill="#fe6f1b" d="M 79.351562 242.894531 C 79.199219 243.9375 78.234375 244.78125 77.191406 244.78125 C 76.148438 244.78125 75.429688 243.9375 75.582031 242.894531 C 75.734375 241.851562 76.703125 241.007812 77.742188 241.007812 C 78.785156 241.007812 79.507812 241.851562 79.351562 242.894531 " fill-opacity="1" fill-rule="nonzero"></path><path fill="#fe6f1b" d="M 86.898438 242.894531 C 86.746094 243.9375 85.777344 244.78125 84.734375 244.78125 C 83.695312 244.78125 82.972656 243.9375 83.125 242.894531 C 83.277344 241.851562 84.246094 241.007812 85.289062 241.007812 C 86.328125 241.007812 87.050781 241.851562 86.898438 242.894531 " fill-opacity="1" fill-rule="nonzero"></path><path fill="#000000" d="M 179.148438 243.570312 L 168.523438 243.570312 C 168.148438 243.570312 167.847656 243.265625 167.847656 242.894531 C 167.847656 242.523438 168.148438 242.21875 168.523438 242.21875 L 179.148438 242.21875 C 179.519531 242.21875 179.824219 242.523438 179.824219 242.894531 C 179.824219 243.265625 179.519531 243.570312 179.148438 243.570312 " fill-opacity="1" fill-rule="nonzero"></path><path fill="#000000" d="M 163.746094 243.570312 L 112.359375 243.570312 C 111.988281 243.570312 111.6875 243.265625 111.6875 242.894531 C 111.6875 242.523438 111.988281 242.21875 112.359375 242.21875 L 163.746094 242.21875 C 164.117188 242.21875 164.417969 242.523438 164.417969 242.894531 C 164.417969 243.265625 164.117188 243.570312 163.746094 243.570312 " fill-opacity="1" fill-rule="nonzero"></path><path fill="#000000" d="M 100.792969 243.570312 L 91.425781 243.570312 C 91.050781 243.570312 90.75 243.265625 90.75 242.894531 C 90.75 242.523438 91.050781 242.21875 91.425781 242.21875 L 100.792969 242.21875 C 101.164062 242.21875 101.46875 242.523438 101.46875 242.894531 C 101.46875 243.265625 101.164062 243.570312 100.792969 243.570312 " fill-opacity="1" fill-rule="nonzero"></path><path fill="#fc4a1b" d="M 162.636719 320.652344 L 56.6875 320.652344 L 66.089844 256.492188 L 172.039062 256.492188 L 162.636719 320.652344 " fill-opacity="1" fill-rule="nonzero"></path><path fill="#03beef" d="M 68.570312 319.164062 C 68.570312 319.164062 53.035156 285.808594 68.460938 250.382812 C 81.964844 219.371094 122.304688 185.628906 176.1875 186.484375 L 159.539062 230.667969 C 159.539062 230.667969 74.929688 245.34375 92.027344 319.164062 L 68.570312 319.164062 " fill-opacity="1" fill-rule="nonzero"></path><path fill="#ffffff" d="M 88.273438 319.164062 L 105.484375 323.464844 C 105.484375 323.464844 104.410156 327.40625 96.878906 326.691406 C 89.351562 325.972656 91.144531 332.78125 99.390625 334.214844 C 107.636719 335.648438 102.972656 338.15625 91.5 337.441406 C 80.027344 336.722656 73.574219 326.332031 71.421875 319.164062 L 88.273438 319.164062 " fill-opacity="1" fill-rule="nonzero"></path><path fill="#000000" d="M 72.34375 319.839844 C 74.894531 327.441406 81.304688 336.128906 91.542969 336.765625 C 98.65625 337.210938 102.011719 336.386719 102.777344 335.914062 C 102.480469 335.714844 101.625 335.289062 99.273438 334.878906 C 93.976562 333.957031 91.140625 330.953125 91.457031 328.582031 C 91.554688 327.867188 92.234375 325.566406 96.945312 326.019531 C 101.9375 326.492188 103.832031 324.867188 104.5 323.914062 L 88.191406 319.839844 Z M 95.289062 338.226562 C 93.421875 338.226562 91.886719 338.140625 91.460938 338.113281 C 80.136719 337.40625 73.238281 327.570312 70.773438 319.359375 C 70.714844 319.15625 70.753906 318.933594 70.878906 318.761719 C 71.007812 318.59375 71.207031 318.488281 71.421875 318.488281 L 88.273438 318.488281 C 88.328125 318.488281 88.382812 318.496094 88.4375 318.511719 L 105.648438 322.8125 C 105.824219 322.855469 105.976562 322.96875 106.066406 323.125 C 106.160156 323.28125 106.183594 323.46875 106.136719 323.644531 C 106.085938 323.828125 104.820312 328.125 96.816406 327.359375 C 94.480469 327.140625 92.941406 327.675781 92.796875 328.761719 C 92.601562 330.207031 94.878906 332.746094 99.503906 333.550781 C 102.910156 334.140625 104.367188 334.910156 104.234375 336.042969 C 104.015625 337.882812 99 338.226562 95.289062 338.226562 " fill-opacity="1" fill-rule="nonzero"></path><path fill="#ffffff" d="M 205.914062 189.082031 L 209.019531 178.988281 C 209.699219 179.097656 210.164062 179.175781 210.300781 179.203125 C 214.214844 180.0625 215.777344 179.09375 216.855469 175.964844 C 217.53125 174.011719 218.292969 171.050781 218.179688 167.097656 C 218.167969 166.675781 218.289062 166.261719 218.539062 165.921875 L 219.566406 164.511719 C 219.824219 164.035156 219.773438 163.441406 219.441406 163.007812 L 219.152344 162.636719 C 218.125 161.296875 217.359375 159.769531 216.84375 158.148438 C 216.363281 156.65625 215.605469 153.898438 214.796875 153.25 C 212.515625 151.433594 203.371094 143.582031 195.351562 151.742188 C 189.09375 158.105469 194.140625 170.027344 196.058594 173.988281 C 196.355469 174.597656 193.433594 179.902344 191.25 183.726562 C 189.851562 186.167969 187.257812 187.679688 184.441406 187.6875 L 180.953125 187.699219 C 180.953125 187.699219 183.914062 198.539062 200.03125 199.636719 C 206.875 200.105469 208.054688 198.976562 208.054688 198.976562 L 206.566406 196.136719 C 205.429688 193.960938 205.195312 191.425781 205.914062 189.082031 " fill-opacity="1" fill-rule="nonzero"></path><path fill="#000000" d="M 181.910156 188.367188 C 182.972656 190.882812 187.117188 198.082031 200.078125 198.964844 C 204.347656 199.253906 206.316406 198.90625 207.125 198.660156 L 205.96875 196.449219 C 204.738281 194.101562 204.492188 191.414062 205.269531 188.882812 L 208.375 178.789062 C 208.472656 178.46875 208.789062 178.269531 209.125 178.320312 C 210.121094 178.480469 210.355469 178.523438 210.445312 178.546875 C 214.269531 179.382812 215.316406 178.359375 216.21875 175.746094 C 217.171875 172.980469 217.59375 170.15625 217.503906 167.121094 C 217.488281 166.542969 217.664062 165.976562 217.992188 165.523438 L 218.988281 164.160156 C 219.097656 163.921875 219.070312 163.628906 218.90625 163.421875 L 218.621094 163.046875 C 217.578125 161.695312 216.765625 160.117188 216.199219 158.355469 C 216.132812 158.148438 216.058594 157.914062 215.984375 157.667969 C 215.609375 156.457031 214.910156 154.203125 214.375 153.777344 L 214.128906 153.578125 C 211.417969 151.398438 203.160156 144.761719 195.832031 152.214844 C 190.050781 158.09375 194.492188 169.199219 196.667969 173.699219 C 196.890625 174.160156 197.171875 174.734375 191.835938 184.0625 C 190.324219 186.703125 187.492188 188.351562 184.445312 188.363281 Z M 203.050781 200.425781 C 202.171875 200.425781 201.15625 200.390625 199.984375 200.3125 C 183.578125 199.195312 180.332031 187.988281 180.300781 187.875 C 180.246094 187.671875 180.289062 187.457031 180.417969 187.289062 C 180.542969 187.121094 180.742188 187.023438 180.949219 187.023438 L 184.441406 187.011719 C 187.003906 187.007812 189.390625 185.617188 190.664062 183.390625 C 194.777344 176.199219 195.328125 174.53125 195.398438 174.167969 C 193.078125 169.339844 188.539062 157.710938 194.867188 151.273438 C 200.300781 145.742188 207.066406 146.167969 214.976562 152.527344 L 215.21875 152.722656 C 216.011719 153.359375 216.59375 155.082031 217.273438 157.269531 C 217.347656 157.511719 217.417969 157.738281 217.484375 157.945312 C 218 159.558594 218.746094 160.996094 219.6875 162.222656 L 219.976562 162.597656 C 220.472656 163.242188 220.546875 164.117188 220.164062 164.832031 C 220.148438 164.859375 220.132812 164.886719 220.113281 164.914062 L 219.082031 166.320312 C 218.925781 166.53125 218.847656 166.800781 218.855469 167.078125 C 218.949219 170.285156 218.503906 173.261719 217.496094 176.1875 C 216.257812 179.769531 214.269531 180.765625 210.15625 179.863281 C 210.109375 179.851562 209.957031 179.824219 209.488281 179.746094 L 206.5625 189.277344 C 205.886719 191.46875 206.101562 193.792969 207.164062 195.824219 L 208.652344 198.664062 C 208.792969 198.929688 208.738281 199.257812 208.523438 199.464844 C 208.328125 199.648438 207.261719 200.425781 203.050781 200.425781 " fill-opacity="1" fill-rule="nonzero"></path><path fill="#000000" d="M 201.355469 140.398438 C 204.320312 140.445312 207.460938 141.625 208.945312 141.441406 C 211.339844 141.140625 212.015625 138.511719 215.238281 138.476562 C 219.144531 138.433594 220.324219 140.367188 221.261719 142.902344 C 221.414062 143.324219 221.53125 143.785156 221.597656 144.289062 C 222.476562 151.054688 218.839844 153.414062 217.304688 154.101562 C 217.304688 154.101562 207.992188 156.46875 206.285156 157.367188 C 204.683594 158.207031 202.519531 160.570312 202.582031 164.699219 C 202.589844 165.230469 202.246094 165.703125 201.761719 165.863281 C 201.191406 166.046875 200.574219 165.753906 200.347656 165.179688 C 199.632812 163.359375 197.96875 159.78125 196.121094 160.109375 C 193.800781 160.523438 192.992188 167.003906 197.484375 168.8125 C 198.863281 169.367188 199.6875 171.101562 199.195312 172.5625 C 198.878906 173.519531 197.683594 174.492188 196.238281 174.488281 C 195.359375 174.488281 194.613281 173.957031 193.984375 173.316406 C 191.394531 170.675781 184.722656 160.460938 185.367188 152.839844 C 186.140625 143.65625 197.417969 140.335938 201.355469 140.398438 " fill-opacity="1" fill-rule="nonzero"></path><path fill="#000000" d="M 210.101562 179.714844 C 210.046875 179.714844 209.992188 179.710938 209.9375 179.695312 C 209.796875 179.65625 206.488281 178.738281 204.554688 176.140625 C 204.347656 175.863281 204.40625 175.46875 204.6875 175.261719 C 204.964844 175.058594 205.355469 175.113281 205.5625 175.390625 C 207.242188 177.648438 210.234375 178.476562 210.265625 178.488281 C 210.597656 178.578125 210.796875 178.921875 210.707031 179.253906 C 210.628906 179.53125 210.378906 179.714844 210.101562 179.714844 " fill-opacity="1" fill-rule="nonzero"></path><path fill="#ffffff" d="M 324.730469 310.074219 L 199.015625 310.074219 C 198.117188 310.074219 197.394531 309.347656 197.394531 308.449219 L 197.394531 303.15625 L 326.355469 303.15625 L 326.355469 308.449219 C 326.355469 309.347656 325.625 310.074219 324.730469 310.074219 " fill-opacity="1" fill-rule="nonzero"></path><path fill="#000000" d="M 198.066406 303.832031 L 198.066406 306.496094 C 198.066406 308.097656 199.371094 309.398438 200.972656 309.398438 L 322.769531 309.398438 C 324.371094 309.398438 325.675781 308.097656 325.675781 306.496094 L 325.675781 303.832031 Z M 322.769531 310.75 L 200.972656 310.75 C 198.628906 310.75 196.714844 308.839844 196.714844 306.496094 L 196.714844 303.15625 C 196.714844 302.78125 197.019531 302.480469 197.390625 302.480469 L 326.351562 302.480469 C 326.722656 302.480469 327.027344 302.78125 327.027344 303.15625 L 327.027344 306.496094 C 327.027344 308.839844 325.117188 310.75 322.769531 310.75 " fill-opacity="1" fill-rule="nonzero"></path><path fill="#ffffff" d="M 326.351562 303.15625 L 252.5625 303.15625 L 276.007812 234.3125 C 277.414062 232.15625 279.855469 230.847656 282.484375 230.847656 L 344.863281 230.847656 C 347.691406 230.847656 349.515625 233.589844 348.589844 236.011719 C 348.222656 236.976562 347.828125 237.929688 347.503906 238.910156 L 326.351562 303.15625 " fill-opacity="1" fill-rule="nonzero"></path><path fill="#000000" d="M 253.507812 302.480469 L 325.863281 302.480469 L 346.863281 238.699219 C 347.101562 237.976562 347.378906 237.265625 347.644531 236.578125 C 347.753906 236.3125 347.859375 236.042969 347.957031 235.773438 C 348.316406 234.839844 348.179688 233.777344 347.597656 232.929688 C 346.976562 232.035156 345.980469 231.519531 344.859375 231.519531 L 282.480469 231.519531 C 280.097656 231.519531 277.910156 232.675781 276.621094 234.609375 Z M 326.351562 303.832031 L 252.5625 303.832031 C 252.34375 303.832031 252.140625 303.722656 252.011719 303.546875 C 251.886719 303.371094 251.851562 303.144531 251.925781 302.9375 L 275.367188 234.09375 C 275.386719 234.042969 275.410156 233.992188 275.441406 233.945312 C 276.976562 231.582031 279.609375 230.171875 282.480469 230.171875 L 344.859375 230.171875 C 346.429688 230.171875 347.835938 230.898438 348.707031 232.164062 C 349.542969 233.378906 349.734375 234.90625 349.222656 236.253906 C 349.117188 236.527344 349.011719 236.800781 348.902344 237.070312 C 348.644531 237.738281 348.371094 238.433594 348.148438 239.121094 L 326.992188 303.363281 C 326.902344 303.640625 326.644531 303.832031 326.351562 303.832031 " fill-opacity="1" fill-rule="nonzero"></path><path fill="#03beef" d="M 298.972656 266.132812 C 298.089844 269.046875 299.4375 272.03125 301.972656 272.796875 C 304.507812 273.5625 307.277344 271.816406 308.15625 268.902344 C 309.035156 265.984375 307.691406 263.003906 305.15625 262.234375 C 302.621094 261.472656 299.847656 263.214844 298.972656 266.132812 " fill-opacity="1" fill-rule="nonzero"></path><path fill="#ffffff" d="M 300.359375 306.613281 L 263.601562 306.613281 L 263.601562 297.769531 L 300.359375 297.769531 L 300.359375 306.613281 " fill-opacity="1" fill-rule="nonzero"></path><path fill="#ffffff" d="M 321.785156 306.613281 L 309.765625 306.613281 L 309.765625 297.769531 L 321.785156 297.769531 L 321.785156 306.613281 " fill-opacity="1" fill-rule="nonzero"></path><path fill="#000000" d="M 383.910156 358.132812 L 82.640625 358.132812 C 82.296875 358.132812 82.015625 357.851562 82.015625 357.507812 C 82.015625 357.160156 82.296875 356.878906 82.640625 356.878906 L 383.910156 356.878906 C 384.257812 356.878906 384.539062 357.160156 384.539062 357.507812 C 384.539062 357.851562 384.257812 358.132812 383.910156 358.132812 " fill-opacity="1" fill-rule="nonzero"></path><path fill="#ffffff" d="M 371.585938 341.488281 C 371.585938 341.488281 379.230469 339.105469 391.742188 314.839844 C 402.304688 294.351562 392.890625 274.554688 390.988281 261.316406 C 390.792969 259.964844 388.945312 259.765625 388.484375 261.054688 C 385.320312 269.949219 380.222656 286.128906 381.050781 296.089844 C 382.234375 310.445312 371.585938 341.488281 371.585938 341.488281 " fill-opacity="1" fill-rule="nonzero"></path><path fill="#ffffff" d="M 379.871094 328.222656 L 382.589844 306.71875 C 383.773438 297.386719 382.246094 287.90625 378.191406 279.429688 C 372.289062 267.082031 371.824219 252.792969 376.917969 240.078125 L 381.285156 229.167969 C 381.835938 227.789062 380.078125 226.667969 379.082031 227.765625 L 372.945312 234.511719 C 359.019531 249.820312 354.316406 271.496094 360.632812 291.273438 L 371.941406 326.699219 L 379.871094 328.222656 " fill-opacity="1" fill-rule="nonzero"></path><path fill="#fc4a1b" d="M 381.183594 318.535156 C 381.152344 318.535156 381.128906 318.535156 381.097656 318.53125 C 380.726562 318.484375 380.46875 318.144531 380.511719 317.777344 L 381.921875 306.636719 C 382.636719 301.003906 382.355469 295.339844 381.09375 289.804688 C 381.011719 289.441406 381.238281 289.082031 381.601562 288.996094 C 381.96875 288.917969 382.328125 289.144531 382.410156 289.503906 C 383.710938 295.195312 383.996094 301.015625 383.261719 306.804688 L 381.851562 317.945312 C 381.808594 318.285156 381.519531 318.535156 381.183594 318.535156 " fill-opacity="1" fill-rule="nonzero"></path><path fill="#ffffff" d="M 376.359375 328.929688 L 366.921875 304.832031 C 364.234375 297.976562 358.585938 292.742188 351.585938 290.621094 L 345.148438 288.675781 C 343.585938 288.199219 342.539062 290.265625 343.828125 291.269531 L 347.785156 294.34375 C 352.070312 297.675781 354.628906 302.789062 354.742188 308.246094 C 354.808594 311.453125 355.726562 314.582031 357.390625 317.316406 L 363.789062 327.800781 L 376.359375 328.929688 " fill-opacity="1" fill-rule="nonzero"></path><path fill="#fc4a1b" d="M 374.96875 318.28125 C 374.945312 318.28125 374.925781 318.277344 374.902344 318.277344 C 374.53125 318.242188 374.257812 317.914062 374.292969 317.542969 C 375.726562 302.21875 372.644531 292.347656 369.925781 283.632812 C 368.660156 279.585938 367.464844 275.757812 366.757812 271.636719 C 363.394531 252.140625 374.851562 235.226562 374.96875 235.058594 C 375.179688 234.753906 375.601562 234.675781 375.90625 234.882812 C 376.214844 235.097656 376.292969 235.515625 376.082031 235.824219 C 375.96875 235.988281 364.820312 252.464844 368.085938 271.40625 C 368.78125 275.441406 369.964844 279.226562 371.214844 283.234375 C 373.96875 292.066406 377.097656 302.074219 375.636719 317.667969 C 375.605469 318.015625 375.3125 318.28125 374.96875 318.28125 " fill-opacity="1" fill-rule="nonzero"></path><path fill="#fc4a1b" d="M 370.957031 311.183594 C 370.675781 311.183594 370.414062 311.007812 370.316406 310.722656 C 369.113281 307.078125 366.382812 303.277344 364.300781 300.730469 C 364.0625 300.445312 364.109375 300.019531 364.394531 299.785156 C 364.683594 299.546875 365.109375 299.589844 365.34375 299.878906 C 367.5 302.515625 370.332031 306.460938 371.597656 310.300781 C 371.71875 310.652344 371.527344 311.035156 371.171875 311.152344 C 371.101562 311.175781 371.027344 311.183594 370.957031 311.183594 " fill-opacity="1" fill-rule="nonzero"></path><path fill="#fc4a1b" d="M 387.539062 307.992188 C 387.503906 307.992188 387.460938 307.988281 387.425781 307.980469 C 387.058594 307.921875 386.808594 307.570312 386.875 307.203125 C 389.4375 292.042969 388.546875 268.679688 388.539062 268.445312 C 388.527344 268.074219 388.816406 267.761719 389.1875 267.746094 C 389.570312 267.730469 389.875 268.019531 389.890625 268.394531 C 389.898438 268.628906 390.792969 292.128906 388.203125 307.429688 C 388.148438 307.761719 387.863281 307.992188 387.539062 307.992188 " fill-opacity="1" fill-rule="nonzero"></path><path fill="#fc4a1b" d="M 364.996094 320.582031 C 364.628906 320.582031 364.328125 320.285156 364.320312 319.914062 C 364.140625 301.175781 349.183594 292.960938 349.03125 292.878906 C 348.703125 292.703125 348.578125 292.292969 348.753906 291.964844 C 348.929688 291.640625 349.339844 291.515625 349.667969 291.691406 C 349.828125 291.773438 365.484375 300.371094 365.671875 319.902344 C 365.675781 320.273438 365.378906 320.578125 365.003906 320.582031 C 365.003906 320.582031 365 320.582031 364.996094 320.582031 " fill-opacity="1" fill-rule="nonzero"></path><path fill="#fc4a1b" d="M 367.046875 285.160156 C 366.847656 285.160156 366.644531 285.074219 366.515625 284.902344 C 362.375 279.589844 360.597656 272.636719 360.523438 272.34375 C 360.433594 271.980469 360.652344 271.613281 361.015625 271.523438 C 361.378906 271.433594 361.742188 271.652344 361.832031 272.015625 C 361.851562 272.082031 363.621094 278.988281 367.578125 284.070312 C 367.808594 284.367188 367.757812 284.789062 367.460938 285.019531 C 367.335938 285.113281 367.191406 285.160156 367.046875 285.160156 " fill-opacity="1" fill-rule="nonzero"></path><path fill="#000000" d="M 388.234375 356.925781 L 360.019531 356.925781 C 357.933594 356.925781 356.242188 355.238281 356.242188 353.152344 L 356.242188 323.101562 L 392.011719 323.101562 L 392.011719 353.152344 C 392.011719 355.238281 390.320312 356.925781 388.234375 356.925781 " fill-opacity="1" fill-rule="nonzero"></path><path fill="#ffffff" d="M 388.503906 329.746094 L 359.746094 329.746094 C 359.375 329.746094 359.070312 329.445312 359.070312 329.070312 C 359.070312 328.699219 359.375 328.398438 359.746094 328.398438 L 388.503906 328.398438 C 388.875 328.398438 389.175781 328.699219 389.175781 329.070312 C 389.175781 329.445312 388.875 329.746094 388.503906 329.746094 " fill-opacity="1" fill-rule="nonzero"></path><path fill="#000000" d="M 383.910156 88.210938 C 381.171875 88.210938 378.941406 85.988281 378.941406 83.253906 C 378.941406 80.515625 381.171875 78.292969 383.910156 78.292969 C 384.285156 78.292969 384.585938 78.597656 384.585938 78.96875 C 384.585938 79.339844 384.285156 79.640625 383.910156 79.640625 C 381.914062 79.640625 380.289062 81.261719 380.289062 83.253906 C 380.289062 85.242188 381.914062 86.863281 383.910156 86.863281 C 385.90625 86.863281 387.527344 85.242188 387.527344 83.253906 C 387.527344 82.878906 387.832031 82.578125 388.207031 82.578125 C 388.578125 82.578125 388.878906 82.878906 388.878906 83.253906 C 388.878906 85.988281 386.652344 88.210938 383.910156 88.210938 " fill-opacity="1" fill-rule="nonzero"></path><path fill="#000000" d="M 161.367188 266.320312 C 161.199219 266.320312 161.03125 266.257812 160.902344 266.132812 C 160.628906 265.875 160.621094 265.449219 160.878906 265.179688 L 163.003906 262.960938 C 163.261719 262.691406 163.6875 262.683594 163.957031 262.941406 C 164.226562 263.195312 164.238281 263.625 163.980469 263.894531 L 161.855469 266.113281 C 161.722656 266.25 161.542969 266.320312 161.367188 266.320312 " fill-opacity="1" fill-rule="nonzero"></path><path fill="#000000" d="M 153.929688 274.085938 C 153.765625 274.085938 153.59375 274.027344 153.464844 273.898438 C 153.195312 273.640625 153.1875 273.214844 153.445312 272.945312 L 155.570312 270.726562 C 155.824219 270.460938 156.253906 270.449219 156.523438 270.707031 C 156.792969 270.964844 156.800781 271.390625 156.542969 271.660156 L 154.417969 273.878906 C 154.285156 274.019531 154.109375 274.085938 153.929688 274.085938 " fill-opacity="1" fill-rule="nonzero"></path><path fill="#000000" d="M 156.015625 266.441406 C 155.84375 266.441406 155.671875 266.375 155.542969 266.246094 L 153.386719 264.125 C 153.121094 263.859375 153.117188 263.433594 153.378906 263.167969 C 153.640625 262.902344 154.066406 262.898438 154.332031 263.160156 L 156.488281 265.285156 C 156.753906 265.546875 156.757812 265.972656 156.496094 266.238281 C 156.363281 266.371094 156.191406 266.441406 156.015625 266.441406 " fill-opacity="1" fill-rule="nonzero"></path><path fill="#000000" d="M 163.5625 273.871094 C 163.390625 273.871094 163.222656 273.808594 163.089844 273.679688 L 160.933594 271.554688 C 160.667969 271.292969 160.664062 270.867188 160.925781 270.601562 C 161.1875 270.335938 161.617188 270.332031 161.882812 270.59375 L 164.039062 272.71875 C 164.300781 272.980469 164.304688 273.40625 164.042969 273.671875 C 163.910156 273.804688 163.738281 273.871094 163.5625 273.871094 " fill-opacity="1" fill-rule="nonzero"></path><path fill="#000000" d="M 96.589844 194.800781 C 95.4375 195.320312 94.914062 196.703125 95.421875 197.882812 C 95.671875 198.457031 96.125 198.894531 96.695312 199.121094 C 97.253906 199.335938 97.863281 199.320312 98.410156 199.074219 C 99.558594 198.558594 100.085938 197.175781 99.574219 195.992188 C 99.328125 195.417969 98.875 194.976562 98.300781 194.757812 C 97.742188 194.539062 97.136719 194.554688 96.589844 194.800781 Z M 97.5 200.621094 C 97.0625 200.621094 96.625 200.539062 96.207031 200.375 C 95.292969 200.019531 94.574219 199.324219 94.183594 198.417969 C 93.382812 196.5625 94.214844 194.390625 96.035156 193.570312 C 96.914062 193.175781 97.894531 193.148438 98.789062 193.5 C 99.703125 193.851562 100.421875 194.550781 100.8125 195.460938 C 101.613281 197.3125 100.78125 199.488281 98.960938 200.304688 C 98.492188 200.515625 97.996094 200.621094 97.5 200.621094 " fill-opacity="1" fill-rule="nonzero"></path><path fill="#000000" d="M 386.785156 28.898438 C 386.621094 28.898438 386.449219 28.835938 386.320312 28.710938 C 386.050781 28.453125 386.042969 28.023438 386.296875 27.757812 L 388.425781 25.539062 C 388.679688 25.269531 389.109375 25.257812 389.378906 25.515625 C 389.648438 25.773438 389.65625 26.199219 389.398438 26.46875 L 387.273438 28.691406 C 387.144531 28.828125 386.964844 28.898438 386.785156 28.898438 " fill-opacity="1" fill-rule="nonzero"></path><path fill="#000000" d="M 379.347656 36.664062 C 379.179688 36.664062 379.015625 36.605469 378.882812 36.480469 C 378.613281 36.222656 378.605469 35.796875 378.859375 35.523438 L 380.984375 33.308594 C 381.246094 33.039062 381.671875 33.027344 381.941406 33.285156 C 382.210938 33.542969 382.21875 33.96875 381.960938 34.238281 L 379.835938 36.460938 C 379.703125 36.597656 379.527344 36.664062 379.347656 36.664062 " fill-opacity="1" fill-rule="nonzero"></path><path fill="#000000" d="M 381.433594 29.019531 C 381.261719 29.019531 381.09375 28.953125 380.957031 28.824219 L 378.800781 26.703125 C 378.539062 26.441406 378.535156 26.011719 378.796875 25.746094 C 379.058594 25.480469 379.484375 25.476562 379.75 25.742188 L 381.90625 27.863281 C 382.171875 28.125 382.175781 28.554688 381.914062 28.816406 C 381.78125 28.949219 381.609375 29.019531 381.433594 29.019531 " fill-opacity="1" fill-rule="nonzero"></path><path fill="#000000" d="M 388.984375 36.449219 C 388.8125 36.449219 388.644531 36.386719 388.511719 36.257812 L 386.351562 34.132812 C 386.085938 33.871094 386.085938 33.445312 386.347656 33.175781 C 386.605469 32.914062 387.035156 32.910156 387.300781 33.167969 L 389.457031 35.292969 C 389.722656 35.554688 389.726562 35.984375 389.464844 36.25 C 389.332031 36.382812 389.160156 36.449219 388.984375 36.449219 " fill-opacity="1" fill-rule="nonzero"></path><path fill="#fe6f1b" d="M 79.109375 224.882812 C 78.804688 224.882812 78.527344 224.671875 78.453125 224.363281 C 72.277344 198.355469 72.609375 179.386719 73.972656 168.054688 C 75.460938 155.71875 78.378906 149.636719 78.503906 149.382812 C 78.667969 149.046875 79.070312 148.90625 79.40625 149.070312 C 79.742188 149.234375 79.878906 149.640625 79.71875 149.972656 C 79.597656 150.214844 68.0625 174.765625 79.769531 224.050781 C 79.855469 224.414062 79.628906 224.777344 79.265625 224.863281 C 79.214844 224.875 79.160156 224.882812 79.109375 224.882812 " fill-opacity="1" fill-rule="nonzero"></path><path fill="#fe6f1b" d="M 64.621094 187.617188 C 64.261719 187.617188 63.960938 187.328125 63.949219 186.960938 C 63.054688 158.070312 70.898438 139.082031 70.976562 138.894531 C 71.121094 138.550781 71.519531 138.386719 71.859375 138.535156 C 72.203125 138.675781 72.367188 139.074219 72.222656 139.417969 C 72.144531 139.601562 64.414062 158.34375 65.296875 186.921875 C 65.308594 187.292969 65.015625 187.605469 64.644531 187.617188 C 64.636719 187.617188 64.628906 187.617188 64.621094 187.617188 " fill-opacity="1" fill-rule="nonzero"></path></svg>